<?xml version="1.0" encoding="UTF-8"?>
<svg version="1.1" xmlns="http://www.w3.org/2000/svg" width="24" height="31">
<path d="M0 0 C3.25 1.3125 3.25 1.3125 5 4 C6.07578264 8.92803373 6.17037569 13.14883647 3.421875 17.49609375 C1.70048779 19.45889502 -0.05108154 21.26486596 -2 23 C0.31 23.33 2.62 23.66 5 24 C5 26.31 5 28.62 5 31 C-2.92 31 -10.84 31 -19 31 C-17.13652736 27.27305473 -15.4354275 25.12216687 -12.625 22.125 C-6.41238799 15.9451198 -6.41238799 15.9451198 -4 8 C-5.65 7.67 -7.3 7.34 -9 7 C-9.33 8.65 -9.66 10.3 -10 12 C-12.64 12 -15.28 12 -18 12 C-18.35671933 8.16526716 -18.29771416 6.44657125 -16.125 3.1875 C-11.6679207 -1.40066986 -6.04667309 -0.5313987 0 0 Z " fill="#F79752" transform="translate(19,0)"/>
</svg>
