<?xml version="1.0" encoding="UTF-8"?>
<svg version="1.1" xmlns="http://www.w3.org/2000/svg" width="90" height="103">
<path d="M0 0 C0.66 0 1.32 0 2 0 C2 5.61 2 11.22 2 17 C2.99 17 3.98 17 5 17 C5.33 13.04 5.66 9.08 6 5 C6.99 5 7.98 5 9 5 C9.495 11.93 9.495 11.93 10 19 C11.8975 19.680625 13.795 20.36125 15.75 21.0625 C17.35101563 21.63677734 17.35101563 21.63677734 18.984375 22.22265625 C21.98014381 22.99488163 23.2239882 23.25251726 26 22 C27.6379725 20.61206707 27.6379725 20.61206707 29.0625 18.9375 C30.53515625 17.27734375 30.53515625 17.27734375 32 16 C32.99 16 33.98 16 35 16 C33.55089321 19.76767766 31.13242988 21.86244919 28.14453125 24.4375 C26.81940018 25.92090311 26.81940018 25.92090311 27.01171875 27.8125 C27.97969697 30.23287755 27.97969697 30.23287755 30.30810547 32.66210938 C33.16672426 36.04254284 35.1120131 39.63491664 37.05859375 43.59375 C37.58780174 44.65837463 37.58780174 44.65837463 38.12770081 45.74450684 C38.86396932 47.2348445 39.59568086 48.72744144 40.32299805 50.22216797 C41.43934563 52.50377212 42.58512343 54.7689906 43.73242188 57.03515625 C44.44716452 58.49127989 45.16011869 59.94828307 45.87109375 61.40625 C46.21571152 62.07829468 46.56032928 62.75033936 46.91539001 63.44274902 C48.4914124 66.76141552 49.0827744 68.60215562 48.32543945 72.2421875 C47.25860731 74.4619215 46.17262613 76.59991381 44.921875 78.71875 C42.44265997 83.54838966 42.33552048 88.15108273 42.25 93.5 C42.20552734 94.87671875 42.20552734 94.87671875 42.16015625 96.28125 C42.09016664 98.52091764 42.03712683 100.75958788 42 103 C41.34 103 40.68 103 40 103 C40 97.06 40 91.12 40 85 C35.74847417 85.05988065 31.50050805 85.14687586 27.25 85.25 C26.0434375 85.26417969 24.836875 85.27835937 23.59375 85.29296875 C22.43359375 85.32519531 21.2734375 85.35742188 20.078125 85.390625 C18.47565918 85.4220459 18.47565918 85.4220459 16.84082031 85.45410156 C13.34174653 86.12649147 12.14570242 87.19971933 10 90 C9.3039772 93.2625342 9.3039772 93.2625342 9.25 96.75 C9.1675 98.8125 9.085 100.875 9 103 C4.71 103 0.42 103 -4 103 C-4.03867188 101.53626953 -4.03867188 101.53626953 -4.078125 100.04296875 C-4.13484375 98.77066406 -4.1915625 97.49835938 -4.25 96.1875 C-4.29640625 94.92292969 -4.3428125 93.65835938 -4.390625 92.35546875 C-4.66665085 89.00776806 -4.66665085 89.00776806 -6.69921875 87.32226562 C-9.45238104 85.74001531 -11.25937242 85.57612854 -14.421875 85.48828125 C-15.95908203 85.43510742 -15.95908203 85.43510742 -17.52734375 85.38085938 C-18.59082031 85.35830078 -19.65429688 85.33574219 -20.75 85.3125 C-21.82894531 85.27833984 -22.90789063 85.24417969 -24.01953125 85.20898438 C-26.67932392 85.12660142 -29.33964537 85.06162163 -32 85 C-32 90.94 -32 96.88 -32 103 C-32.99 103 -33.98 103 -35 103 C-35.00410889 102.44650879 -35.00821777 101.89301758 -35.01245117 101.32275391 C-34.85815599 87.54908125 -34.85815599 87.54908125 -39.94140625 75.0703125 C-41.42654519 72.16579723 -41.25434193 70.26149169 -41 67 C-40.04357995 64.2660253 -39.04003502 61.71353455 -37.859375 59.08203125 C-37.53592102 58.34297043 -37.21246704 57.60390961 -36.87921143 56.842453 C-36.19526858 55.28782359 -35.50576315 53.73563083 -34.81103516 52.18579102 C-33.75175805 49.81643234 -32.71670248 47.43750675 -31.68359375 45.05664062 C-31.01444948 43.54363819 -30.34392293 42.03124617 -29.671875 40.51953125 C-29.36441345 39.81012894 -29.0569519 39.10072662 -28.74017334 38.36982727 C-26.97828607 34.4872582 -25.39623511 32.47196968 -22 30 C-21.50533736 27.93209336 -21.50533736 27.93209336 -21.70703125 25.6484375 C-21.72137207 24.80055664 -21.73571289 23.95267578 -21.75048828 23.07910156 C-21.77095215 22.18674805 -21.79141602 21.29439453 -21.8125 20.375 C-21.75403666 13.69108938 -21.58672989 9.21971979 -16.625 4.25 C-12.69685039 1 -12.69685039 1 -9 1 C-10.61695475 4.63814819 -12.35438887 6.69298608 -15 10 C-8.07 12.475 -8.07 12.475 -1 15 C-0.67 10.05 -0.34 5.1 0 0 Z M-18 13 C-18 18.28 -18 23.56 -18 29 C-12.06 29 -6.12 29 0 29 C0 25.7 0 22.4 0 19 C-6.01777955 16.13439069 -11.45429409 14.24680113 -18 13 Z M2 20 C2 22.97 2 25.94 2 29 C3.32 29 4.64 29 6 29 C6 26.36 6 23.72 6 21 C4.68 20.67 3.36 20.34 2 20 Z M9 22 C9 24.31 9 26.62 9 29 C13.95 29 18.9 29 24 29 C24 28.34 24 27.68 24 27 C21.8765984 26.16260219 19.7512272 25.33019717 17.625 24.5 C16.44164062 24.0359375 15.25828125 23.571875 14.0390625 23.09375 C11.2246756 21.88712206 11.2246756 21.88712206 9 22 Z M-19 31 C-19.33 31.66 -19.66 32.32 -20 33 C-13.4 33 -6.8 33 0 33 C0 32.34 0 31.68 0 31 C-6.27 31 -12.54 31 -19 31 Z M2 31 C2 31.66 2 32.32 2 33 C3.32 33 4.64 33 6 33 C6 32.34 6 31.68 6 31 C4.68 31 3.36 31 2 31 Z M9 31 C9 31.66 9 32.32 9 33 C14.61 33 20.22 33 26 33 C25.67 32.34 25.34 31.68 25 31 C19.72 31 14.44 31 9 31 Z M-23 36 C-23 37.98 -23 39.96 -23 42 C-22.67 42 -22.34 42 -22 42 C-22 40.02 -22 38.04 -22 36 C-22.33 36 -22.66 36 -23 36 Z M-20 36 C-20 37.98 -20 39.96 -20 42 C-19.67 42 -19.34 42 -19 42 C-19 40.02 -19 38.04 -19 36 C-19.33 36 -19.66 36 -20 36 Z M-17 36 C-17 37.98 -17 39.96 -17 42 C-16.67 42 -16.34 42 -16 42 C-16 40.02 -16 38.04 -16 36 C-16.33 36 -16.66 36 -17 36 Z M-14 36 C-14 37.98 -14 39.96 -14 42 C-13.67 42 -13.34 42 -13 42 C-13 40.02 -13 38.04 -13 36 C-13.33 36 -13.66 36 -14 36 Z M-11 36 C-11 37.98 -11 39.96 -11 42 C-10.67 42 -10.34 42 -10 42 C-10 40.02 -10 38.04 -10 36 C-10.33 36 -10.66 36 -11 36 Z M-7 36 C-7 37.98 -7 39.96 -7 42 C-6.67 42 -6.34 42 -6 42 C-6 40.02 -6 38.04 -6 36 C-6.33 36 -6.66 36 -7 36 Z M-4 36 C-4 37.98 -4 39.96 -4 42 C-3.67 42 -3.34 42 -3 42 C-3 40.02 -3 38.04 -3 36 C-3.33 36 -3.66 36 -4 36 Z M-1 36 C-1 37.98 -1 39.96 -1 42 C-0.67 42 -0.34 42 0 42 C0 40.02 0 38.04 0 36 C-0.33 36 -0.66 36 -1 36 Z M2 36 C2 37.98 2 39.96 2 42 C2.33 42 2.66 42 3 42 C3 40.02 3 38.04 3 36 C2.67 36 2.34 36 2 36 Z M5 36 C5 37.98 5 39.96 5 42 C5.33 42 5.66 42 6 42 C6 40.02 6 38.04 6 36 C5.67 36 5.34 36 5 36 Z M9 36 C9 37.98 9 39.96 9 42 C9.33 42 9.66 42 10 42 C10 40.02 10 38.04 10 36 C9.67 36 9.34 36 9 36 Z M12 36 C12 37.98 12 39.96 12 42 C12.33 42 12.66 42 13 42 C13 40.02 13 38.04 13 36 C12.67 36 12.34 36 12 36 Z M15 36 C15 37.98 15 39.96 15 42 C15.33 42 15.66 42 16 42 C16 40.02 16 38.04 16 36 C15.67 36 15.34 36 15 36 Z M18 36 C18 37.98 18 39.96 18 42 C18.33 42 18.66 42 19 42 C19 40.02 19 38.04 19 36 C18.67 36 18.34 36 18 36 Z M21 36 C21 37.98 21 39.96 21 42 C21.33 42 21.66 42 22 42 C22 40.02 22 38.04 22 36 C21.67 36 21.34 36 21 36 Z M24 36 C24 37.98 24 39.96 24 42 C24.33 42 24.66 42 25 42 C25 40.02 25 38.04 25 36 C24.67 36 24.34 36 24 36 Z M28 36 C28 37.98 28 39.96 28 42 C28.33 42 28.66 42 29 42 C29 40.02 29 38.04 29 36 C28.67 36 28.34 36 28 36 Z M31 40 C31 49.57 31 59.14 31 69 C35.62 69 40.24 69 45 69 C43.61666902 64.85000706 42.27591057 61.26874514 40.3984375 57.3828125 C39.90859375 56.36445312 39.41875 55.34609375 38.9140625 54.296875 C38.40617187 53.25015625 37.89828125 52.2034375 37.375 51.125 C36.859375 50.05507813 36.34375 48.98515625 35.8125 47.8828125 C34.54486479 45.25364318 33.2739434 42.62611698 32 40 C31.67 40 31.34 40 31 40 Z M-27 42 C-28.8392812 46.12237348 -30.67041342 50.24831578 -32.5 54.375 C-33.02464844 55.550625 -33.54929687 56.72625 -34.08984375 57.9375 C-34.58613281 59.05898438 -35.08242188 60.18046875 -35.59375 61.3359375 C-36.05458984 62.37282715 -36.51542969 63.4097168 -36.99023438 64.47802734 C-38.12390018 66.85668247 -38.12390018 66.85668247 -38 69 C-34.04 69 -30.08 69 -26 69 C-26 60.09 -26 51.18 -26 42 C-26.33 42 -26.66 42 -27 42 Z M-23 43 C-23 45.64 -23 48.28 -23 51 C-22.67 51 -22.34 51 -22 51 C-22 48.36 -22 45.72 -22 43 C-22.33 43 -22.66 43 -23 43 Z M-20 43 C-20 45.64 -20 48.28 -20 51 C-19.67 51 -19.34 51 -19 51 C-19 48.36 -19 45.72 -19 43 C-19.33 43 -19.66 43 -20 43 Z M-17 43 C-17 45.64 -17 48.28 -17 51 C-16.67 51 -16.34 51 -16 51 C-16 48.36 -16 45.72 -16 43 C-16.33 43 -16.66 43 -17 43 Z M-14 43 C-14 45.64 -14 48.28 -14 51 C-13.67 51 -13.34 51 -13 51 C-13 48.36 -13 45.72 -13 43 C-13.33 43 -13.66 43 -14 43 Z M-11 43 C-11 45.64 -11 48.28 -11 51 C-10.67 51 -10.34 51 -10 51 C-10 48.36 -10 45.72 -10 43 C-10.33 43 -10.66 43 -11 43 Z M-7 43 C-7 45.64 -7 48.28 -7 51 C-6.67 51 -6.34 51 -6 51 C-6 48.36 -6 45.72 -6 43 C-6.33 43 -6.66 43 -7 43 Z M-4 43 C-4 45.64 -4 48.28 -4 51 C-3.67 51 -3.34 51 -3 51 C-3 48.36 -3 45.72 -3 43 C-3.33 43 -3.66 43 -4 43 Z M-1 43 C-1 45.64 -1 48.28 -1 51 C-0.67 51 -0.34 51 0 51 C0 48.36 0 45.72 0 43 C-0.33 43 -0.66 43 -1 43 Z M2 43 C2 45.64 2 48.28 2 51 C2.33 51 2.66 51 3 51 C3 48.36 3 45.72 3 43 C2.67 43 2.34 43 2 43 Z M5 43 C5 45.64 5 48.28 5 51 C5.33 51 5.66 51 6 51 C6 48.36 6 45.72 6 43 C5.67 43 5.34 43 5 43 Z M9 43 C9 45.64 9 48.28 9 51 C9.33 51 9.66 51 10 51 C10 48.36 10 45.72 10 43 C9.67 43 9.34 43 9 43 Z M12 43 C12 45.64 12 48.28 12 51 C12.33 51 12.66 51 13 51 C13 48.36 13 45.72 13 43 C12.67 43 12.34 43 12 43 Z M15 43 C15 45.64 15 48.28 15 51 C15.33 51 15.66 51 16 51 C16 48.36 16 45.72 16 43 C15.67 43 15.34 43 15 43 Z M18 43 C18 45.64 18 48.28 18 51 C18.33 51 18.66 51 19 51 C19 48.36 19 45.72 19 43 C18.67 43 18.34 43 18 43 Z M21 43 C21 45.64 21 48.28 21 51 C21.33 51 21.66 51 22 51 C22 48.36 22 45.72 22 43 C21.67 43 21.34 43 21 43 Z M24 43 C24 45.64 24 48.28 24 51 C24.33 51 24.66 51 25 51 C25 48.36 25 45.72 25 43 C24.67 43 24.34 43 24 43 Z M28 43 C28 45.64 28 48.28 28 51 C28.33 51 28.66 51 29 51 C29 48.36 29 45.72 29 43 C28.67 43 28.34 43 28 43 Z M-23 53 C-23 54.98 -23 56.96 -23 59 C-22.67 59 -22.34 59 -22 59 C-22 57.02 -22 55.04 -22 53 C-22.33 53 -22.66 53 -23 53 Z M-20 53 C-20 54.98 -20 56.96 -20 59 C-19.67 59 -19.34 59 -19 59 C-19 57.02 -19 55.04 -19 53 C-19.33 53 -19.66 53 -20 53 Z M-17 53 C-17 54.98 -17 56.96 -17 59 C-16.67 59 -16.34 59 -16 59 C-16 57.02 -16 55.04 -16 53 C-16.33 53 -16.66 53 -17 53 Z M-14 53 C-14 54.98 -14 56.96 -14 59 C-13.67 59 -13.34 59 -13 59 C-13 57.02 -13 55.04 -13 53 C-13.33 53 -13.66 53 -14 53 Z M-11 53 C-11 54.98 -11 56.96 -11 59 C-10.67 59 -10.34 59 -10 59 C-10 57.02 -10 55.04 -10 53 C-10.33 53 -10.66 53 -11 53 Z M-7 53 C-7 54.98 -7 56.96 -7 59 C-6.67 59 -6.34 59 -6 59 C-6 57.02 -6 55.04 -6 53 C-6.33 53 -6.66 53 -7 53 Z M-4 53 C-4 54.98 -4 56.96 -4 59 C-3.67 59 -3.34 59 -3 59 C-3 57.02 -3 55.04 -3 53 C-3.33 53 -3.66 53 -4 53 Z M-1 53 C-1 54.98 -1 56.96 -1 59 C-0.67 59 -0.34 59 0 59 C0 57.02 0 55.04 0 53 C-0.33 53 -0.66 53 -1 53 Z M2 53 C2 54.98 2 56.96 2 59 C2.33 59 2.66 59 3 59 C3 57.02 3 55.04 3 53 C2.67 53 2.34 53 2 53 Z M5 53 C5 54.98 5 56.96 5 59 C5.33 59 5.66 59 6 59 C6 57.02 6 55.04 6 53 C5.67 53 5.34 53 5 53 Z M9 53 C9 54.98 9 56.96 9 59 C9.33 59 9.66 59 10 59 C10 57.02 10 55.04 10 53 C9.67 53 9.34 53 9 53 Z M12 53 C12 54.98 12 56.96 12 59 C12.33 59 12.66 59 13 59 C13 57.02 13 55.04 13 53 C12.67 53 12.34 53 12 53 Z M15 53 C15 54.98 15 56.96 15 59 C15.33 59 15.66 59 16 59 C16 57.02 16 55.04 16 53 C15.67 53 15.34 53 15 53 Z M18 53 C18 54.98 18 56.96 18 59 C18.33 59 18.66 59 19 59 C19 57.02 19 55.04 19 53 C18.67 53 18.34 53 18 53 Z M21 53 C21 54.98 21 56.96 21 59 C21.33 59 21.66 59 22 59 C22 57.02 22 55.04 22 53 C21.67 53 21.34 53 21 53 Z M24 53 C24 54.98 24 56.96 24 59 C24.33 59 24.66 59 25 59 C25 57.02 25 55.04 25 53 C24.67 53 24.34 53 24 53 Z M28 53 C28 54.98 28 56.96 28 59 C28.33 59 28.66 59 29 59 C29 57.02 29 55.04 29 53 C28.67 53 28.34 53 28 53 Z M-23 61 C-23 63.64 -23 66.28 -23 69 C-22.67 69 -22.34 69 -22 69 C-22 66.36 -22 63.72 -22 61 C-22.33 61 -22.66 61 -23 61 Z M-20 61 C-20 63.64 -20 66.28 -20 69 C-19.67 69 -19.34 69 -19 69 C-19 66.36 -19 63.72 -19 61 C-19.33 61 -19.66 61 -20 61 Z M-17 61 C-17 63.64 -17 66.28 -17 69 C-16.67 69 -16.34 69 -16 69 C-16 66.36 -16 63.72 -16 61 C-16.33 61 -16.66 61 -17 61 Z M-14 61 C-14 63.64 -14 66.28 -14 69 C-13.67 69 -13.34 69 -13 69 C-13 66.36 -13 63.72 -13 61 C-13.33 61 -13.66 61 -14 61 Z M-11 61 C-11 63.64 -11 66.28 -11 69 C-10.67 69 -10.34 69 -10 69 C-10 66.36 -10 63.72 -10 61 C-10.33 61 -10.66 61 -11 61 Z M-7 61 C-7 63.64 -7 66.28 -7 69 C-6.67 69 -6.34 69 -6 69 C-6 66.36 -6 63.72 -6 61 C-6.33 61 -6.66 61 -7 61 Z M-4 61 C-4 63.64 -4 66.28 -4 69 C-3.67 69 -3.34 69 -3 69 C-3 66.36 -3 63.72 -3 61 C-3.33 61 -3.66 61 -4 61 Z M-1 61 C-1 63.64 -1 66.28 -1 69 C-0.67 69 -0.34 69 0 69 C0 66.36 0 63.72 0 61 C-0.33 61 -0.66 61 -1 61 Z M2 61 C2 63.64 2 66.28 2 69 C2.33 69 2.66 69 3 69 C3 66.36 3 63.72 3 61 C2.67 61 2.34 61 2 61 Z M5 61 C5 63.64 5 66.28 5 69 C5.33 69 5.66 69 6 69 C6 66.36 6 63.72 6 61 C5.67 61 5.34 61 5 61 Z M9 61 C9 63.64 9 66.28 9 69 C9.33 69 9.66 69 10 69 C10 66.36 10 63.72 10 61 C9.67 61 9.34 61 9 61 Z M12 61 C12 63.64 12 66.28 12 69 C12.33 69 12.66 69 13 69 C13 66.36 13 63.72 13 61 C12.67 61 12.34 61 12 61 Z M15 61 C15 63.64 15 66.28 15 69 C15.33 69 15.66 69 16 69 C16 66.36 16 63.72 16 61 C15.67 61 15.34 61 15 61 Z M18 61 C18 63.64 18 66.28 18 69 C18.33 69 18.66 69 19 69 C19 66.36 19 63.72 19 61 C18.67 61 18.34 61 18 61 Z M21 61 C21 63.64 21 66.28 21 69 C21.33 69 21.66 69 22 69 C22 66.36 22 63.72 22 61 C21.67 61 21.34 61 21 61 Z M24 61 C24 63.64 24 66.28 24 69 C24.33 69 24.66 69 25 69 C25 66.36 25 63.72 25 61 C24.67 61 24.34 61 24 61 Z M28 61 C28 63.64 28 66.28 28 69 C28.33 69 28.66 69 29 69 C29 66.36 29 63.72 29 61 C28.67 61 28.34 61 28 61 Z M-38 71 C-37.38991336 73.01797888 -36.71143088 75.01548229 -36 77 C-35.67386719 77.94230469 -35.34773438 78.88460937 -35.01171875 79.85546875 C-32.56246652 82.46641918 -31.81000954 82.35325933 -28.33203125 82.48828125 C-26.49155452 82.45505965 -24.65140668 82.3954486 -22.8125 82.3125 C-21.40194336 82.27866211 -21.40194336 82.27866211 -19.96289062 82.24414062 C-17.64032527 82.18519227 -15.32096224 82.10297785 -13 82 C-13.763125 81.24332031 -14.52625 80.48664063 -15.3125 79.70703125 C-16.76747121 78.24148612 -18.20908153 76.75903354 -19.5625 75.19921875 C-22.38259146 72.23352474 -24.19141889 71.09173376 -28.33984375 70.62109375 C-31.58119138 70.62461313 -34.76996493 70.73771144 -38 71 Z M19 81 C19 81.33 19 81.66 19 82 C25.93 82 32.86 82 40 82 C45.16188098 74.4245526 45.16188098 74.4245526 45 71 C32.68732951 69.50453395 26.96040894 71.31842156 19 81 Z " fill="#B6B1AE" transform="translate(41,0)"/>
<path d="M0 0 C7.81452752 -0.02526563 15.62904458 -0.04283105 23.44360352 -0.05493164 C26.10441481 -0.05997383 28.76522332 -0.06680736 31.42602539 -0.07543945 C35.24105516 -0.08751009 39.05604844 -0.09322929 42.87109375 -0.09765625 C44.66793861 -0.10539818 44.66793861 -0.10539818 46.50108337 -0.11329651 C48.15268211 -0.11340981 48.15268211 -0.11340981 49.83764648 -0.11352539 C50.81249496 -0.115746 51.78734344 -0.11796661 52.79173279 -0.12025452 C55 0 55 0 56 1 C56.08838648 3.37541051 56.11537523 5.7223358 56.09765625 8.09765625 C56.09515869 9.39453369 56.09266113 10.69141113 56.09008789 12.02758789 C56.08098389 13.68910889 56.07187988 15.35062988 56.0625 17.0625 C56.041875 22.321875 56.02125 27.58125 56 33 C37.19 33 18.38 33 -1 33 C-1.020625 28.111875 -1.04125 23.22375 -1.0625 18.1875 C-1.071604 16.64860107 -1.08070801 15.10970215 -1.09008789 13.52416992 C-1.09258545 12.31349854 -1.09508301 11.10282715 -1.09765625 9.85546875 C-1.10289307 8.61434326 -1.10812988 7.37321777 -1.11352539 6.09448242 C-1 3 -1 3 0 0 Z M2 7 C2 9.64 2 12.28 2 15 C2.33 15 2.66 15 3 15 C3 12.36 3 9.72 3 7 C2.67 7 2.34 7 2 7 Z M5 7 C5 9.64 5 12.28 5 15 C5.33 15 5.66 15 6 15 C6 12.36 6 9.72 6 7 C5.67 7 5.34 7 5 7 Z M8 7 C8 9.64 8 12.28 8 15 C8.33 15 8.66 15 9 15 C9 12.36 9 9.72 9 7 C8.67 7 8.34 7 8 7 Z M11 7 C11 9.64 11 12.28 11 15 C11.33 15 11.66 15 12 15 C12 12.36 12 9.72 12 7 C11.67 7 11.34 7 11 7 Z M14 7 C14 9.64 14 12.28 14 15 C14.33 15 14.66 15 15 15 C15 12.36 15 9.72 15 7 C14.67 7 14.34 7 14 7 Z M18 7 C18 9.64 18 12.28 18 15 C18.33 15 18.66 15 19 15 C19 12.36 19 9.72 19 7 C18.67 7 18.34 7 18 7 Z M21 7 C21 9.64 21 12.28 21 15 C21.33 15 21.66 15 22 15 C22 12.36 22 9.72 22 7 C21.67 7 21.34 7 21 7 Z M24 7 C24 9.64 24 12.28 24 15 C24.33 15 24.66 15 25 15 C25 12.36 25 9.72 25 7 C24.67 7 24.34 7 24 7 Z M27 7 C27 9.64 27 12.28 27 15 C27.33 15 27.66 15 28 15 C28 12.36 28 9.72 28 7 C27.67 7 27.34 7 27 7 Z M30 7 C30 9.64 30 12.28 30 15 C30.33 15 30.66 15 31 15 C31 12.36 31 9.72 31 7 C30.67 7 30.34 7 30 7 Z M34 7 C34 9.64 34 12.28 34 15 C34.33 15 34.66 15 35 15 C35 12.36 35 9.72 35 7 C34.67 7 34.34 7 34 7 Z M37 7 C37 9.64 37 12.28 37 15 C37.33 15 37.66 15 38 15 C38 12.36 38 9.72 38 7 C37.67 7 37.34 7 37 7 Z M40 7 C40 9.64 40 12.28 40 15 C40.33 15 40.66 15 41 15 C41 12.36 41 9.72 41 7 C40.67 7 40.34 7 40 7 Z M43 7 C43 9.64 43 12.28 43 15 C43.33 15 43.66 15 44 15 C44 12.36 44 9.72 44 7 C43.67 7 43.34 7 43 7 Z M46 7 C46 9.64 46 12.28 46 15 C46.33 15 46.66 15 47 15 C47 12.36 47 9.72 47 7 C46.67 7 46.34 7 46 7 Z M49 7 C49 9.64 49 12.28 49 15 C49.33 15 49.66 15 50 15 C50 12.36 50 9.72 50 7 C49.67 7 49.34 7 49 7 Z M53 7 C53 9.64 53 12.28 53 15 C53.33 15 53.66 15 54 15 C54 12.36 54 9.72 54 7 C53.67 7 53.34 7 53 7 Z M2 17 C2 18.98 2 20.96 2 23 C2.33 23 2.66 23 3 23 C3 21.02 3 19.04 3 17 C2.67 17 2.34 17 2 17 Z M5 17 C5 18.98 5 20.96 5 23 C5.33 23 5.66 23 6 23 C6 21.02 6 19.04 6 17 C5.67 17 5.34 17 5 17 Z M8 17 C8 18.98 8 20.96 8 23 C8.33 23 8.66 23 9 23 C9 21.02 9 19.04 9 17 C8.67 17 8.34 17 8 17 Z M11 17 C11 18.98 11 20.96 11 23 C11.33 23 11.66 23 12 23 C12 21.02 12 19.04 12 17 C11.67 17 11.34 17 11 17 Z M14 17 C14 18.98 14 20.96 14 23 C14.33 23 14.66 23 15 23 C15 21.02 15 19.04 15 17 C14.67 17 14.34 17 14 17 Z M18 17 C18 18.98 18 20.96 18 23 C18.33 23 18.66 23 19 23 C19 21.02 19 19.04 19 17 C18.67 17 18.34 17 18 17 Z M21 17 C21 18.98 21 20.96 21 23 C21.33 23 21.66 23 22 23 C22 21.02 22 19.04 22 17 C21.67 17 21.34 17 21 17 Z M24 17 C24 18.98 24 20.96 24 23 C24.33 23 24.66 23 25 23 C25 21.02 25 19.04 25 17 C24.67 17 24.34 17 24 17 Z M27 17 C27 18.98 27 20.96 27 23 C27.33 23 27.66 23 28 23 C28 21.02 28 19.04 28 17 C27.67 17 27.34 17 27 17 Z M30 17 C30 18.98 30 20.96 30 23 C30.33 23 30.66 23 31 23 C31 21.02 31 19.04 31 17 C30.67 17 30.34 17 30 17 Z M34 17 C34 18.98 34 20.96 34 23 C34.33 23 34.66 23 35 23 C35 21.02 35 19.04 35 17 C34.67 17 34.34 17 34 17 Z M37 17 C37 18.98 37 20.96 37 23 C37.33 23 37.66 23 38 23 C38 21.02 38 19.04 38 17 C37.67 17 37.34 17 37 17 Z M40 17 C40 18.98 40 20.96 40 23 C40.33 23 40.66 23 41 23 C41 21.02 41 19.04 41 17 C40.67 17 40.34 17 40 17 Z M43 17 C43 18.98 43 20.96 43 23 C43.33 23 43.66 23 44 23 C44 21.02 44 19.04 44 17 C43.67 17 43.34 17 43 17 Z M46 17 C46 18.98 46 20.96 46 23 C46.33 23 46.66 23 47 23 C47 21.02 47 19.04 47 17 C46.67 17 46.34 17 46 17 Z M49 17 C49 18.98 49 20.96 49 23 C49.33 23 49.66 23 50 23 C50 21.02 50 19.04 50 17 C49.67 17 49.34 17 49 17 Z M53 17 C53 18.98 53 20.96 53 23 C53.33 23 53.66 23 54 23 C54 21.02 54 19.04 54 17 C53.67 17 53.34 17 53 17 Z " fill="#F69752" transform="translate(16,36)"/>
<path d="M0 0 C0.66 0 1.32 0 2 0 C2 5.61 2 11.22 2 17 C2.99 17 3.98 17 5 17 C5.33 13.04 5.66 9.08 6 5 C6.99 5 7.98 5 9 5 C9 12.92 9 20.84 9 29 C8.01 29 7.02 29 6 29 C5.505 25.04 5.505 25.04 5 21 C4.01 20.67 3.02 20.34 2 20 C2 24.62 2 29.24 2 34 C6.29 34.33 10.58 34.66 15 35 C15 35.33 15 35.66 15 36 C1.8 36 -11.4 36 -25 36 C-25.33 37.98 -25.66 39.96 -26 42 C-26.84230009 44.19028488 -27.75543803 46.35412618 -28.72265625 48.4921875 C-29.52993164 50.29042969 -29.52993164 50.29042969 -30.35351562 52.125 C-30.9230245 53.37506953 -31.49268788 54.62506867 -32.0625 55.875 C-32.63671202 57.1481471 -33.21028613 58.42158211 -33.78320312 59.6953125 C-35.1825331 62.79970841 -36.590437 65.90023702 -38 69 C-33.05 69 -28.1 69 -23 69 C-23.33 69.66 -23.66 70.32 -24 71 C-28.62 71 -33.24 71 -38 71 C-37.175 72.44375 -36.35 73.8875 -35.5 75.375 C-33 79.75 -33 79.75 -33 82 C-31.71351562 81.98839844 -30.42703125 81.97679688 -29.1015625 81.96484375 C-14.37849382 81.8765991 0.29288959 82.3374223 15 83 C15 83.33 15 83.66 15 84 C-0.67906098 84.78301593 -16.30193329 85.13179347 -32 85 C-32 90.94 -32 96.88 -32 103 C-32.99 103 -33.98 103 -35 103 C-35.00410889 102.44650879 -35.00821777 101.89301758 -35.01245117 101.32275391 C-34.85815599 87.54908125 -34.85815599 87.54908125 -39.94140625 75.0703125 C-41.42654519 72.16579723 -41.25434193 70.26149169 -41 67 C-40.04357995 64.2660253 -39.04003502 61.71353455 -37.859375 59.08203125 C-37.53592102 58.34297043 -37.21246704 57.60390961 -36.87921143 56.842453 C-36.19526858 55.28782359 -35.50576315 53.73563083 -34.81103516 52.18579102 C-33.75175805 49.81643234 -32.71670248 47.43750675 -31.68359375 45.05664062 C-31.01444948 43.54363819 -30.34392293 42.03124617 -29.671875 40.51953125 C-29.36441345 39.81012894 -29.0569519 39.10072662 -28.74017334 38.36982727 C-26.97828607 34.4872582 -25.39623511 32.47196968 -22 30 C-21.50533736 27.93209336 -21.50533736 27.93209336 -21.70703125 25.6484375 C-21.72137207 24.80055664 -21.73571289 23.95267578 -21.75048828 23.07910156 C-21.77095215 22.18674805 -21.79141602 21.29439453 -21.8125 20.375 C-21.75403666 13.69108938 -21.58672989 9.21971979 -16.625 4.25 C-12.69685039 1 -12.69685039 1 -9 1 C-10.61695475 4.63814819 -12.35438887 6.69298608 -15 10 C-8.07 12.475 -8.07 12.475 -1 15 C-0.67 10.05 -0.34 5.1 0 0 Z M-18 13 C-18 18.28 -18 23.56 -18 29 C-12.06 29 -6.12 29 0 29 C0 25.7 0 22.4 0 19 C-6.01777955 16.13439069 -11.45429409 14.24680113 -18 13 Z M-19 31 C-19.33 31.66 -19.66 32.32 -20 33 C-13.4 33 -6.8 33 0 33 C0 32.34 0 31.68 0 31 C-6.27 31 -12.54 31 -19 31 Z " fill="#BFADA0" transform="translate(41,0)"/>
<path d="M0 0 C18.15 0 36.3 0 55 0 C53.35 1.65 51.7 3.3 50 5 C49.5884668 5.58338135 49.17693359 6.1667627 48.75292969 6.76782227 C46.44457905 9.94102243 44.57001912 10.89326837 40.68554688 11.62060547 C37.24284779 11.86804411 33.87244133 11.978569 30.42480469 11.94702148 C28.26549993 11.93756786 26.11870524 12.00776693 23.9609375 12.08398438 C16.75032411 12.1803189 11.73558074 11.60713875 6.109375 6.56640625 C4.70404809 5.07701654 3.32624973 3.5602202 2 2 C1.34 1.34 0.68 0.68 0 0 Z " fill="#F79752" transform="translate(16,71)"/>
<path d="M0 0 C0.66 0 1.32 0 2 0 C-0.27421838 7.24576554 -3.11726096 14.12051872 -6.1875 21.0625 C-6.65091797 22.11888672 -7.11433594 23.17527344 -7.59179688 24.26367188 C-8.72433842 26.84399848 -9.86167591 29.42221918 -11 32 C-6.05 32 -1.1 32 4 32 C3.67 32.66 3.34 33.32 3 34 C-1.62 34 -6.24 34 -11 34 C-9.7625 36.165625 -9.7625 36.165625 -8.5 38.375 C-6 42.75 -6 42.75 -6 45 C-4.71351562 44.98839844 -3.42703125 44.97679687 -2.1015625 44.96484375 C12.62150618 44.8765991 27.29288959 45.3374223 42 46 C42 46.33 42 46.66 42 47 C26.32093902 47.78301593 10.69806671 48.13179347 -5 48 C-5 53.94 -5 59.88 -5 66 C-5.99 66 -6.98 66 -8 66 C-8.00410889 65.44650879 -8.00821777 64.89301758 -8.01245117 64.32275391 C-7.85815599 50.54908125 -7.85815599 50.54908125 -12.94140625 38.0703125 C-14.40825921 35.20155948 -14.22072217 33.21132861 -14 30 C-12.93017578 26.78027344 -12.93017578 26.78027344 -11.4453125 23.359375 C-11.18370331 22.75111877 -10.92209412 22.14286255 -10.65255737 21.51617432 C-10.10113947 20.23999882 -9.54450027 18.96606789 -8.98291016 17.69433594 C-8.1235079 15.74661836 -7.28125582 13.79215453 -6.44140625 11.8359375 C-2.30382335 2.30382335 -2.30382335 2.30382335 0 0 Z " fill="#B3B2B2" transform="translate(14,37)"/>
<path d="M0 0 C7.92 0 15.84 0 24 0 C22.35 1.98 20.7 3.96 19 6 C18.19483496 9.4089826 18.19483496 9.4089826 18.1875 12.875 C18.0946875 15.906875 18.0946875 15.906875 18 19 C13.71 19 9.42 19 5 19 C4.97421875 18.02417969 4.9484375 17.04835938 4.921875 16.04296875 C4.86515625 14.77066406 4.8084375 13.49835938 4.75 12.1875 C4.70359375 10.92292969 4.6571875 9.65835938 4.609375 8.35546875 C4.34267722 4.92855917 4.34267722 4.92855917 1.953125 3.17578125 C1.30859375 2.78777344 0.6640625 2.39976563 0 2 C0 1.34 0 0.68 0 0 Z " fill="#F59753" transform="translate(32,84)"/>
<path d="M0 0 C0.99 0 1.98 0 3 0 C3 4.62 3 9.24 3 14 C2.01 13.67 1.02 13.34 0 13 C0 8.71 0 4.42 0 0 Z " fill="#F79752" transform="translate(47,5)"/>
<path d="M0 0 C0.99 0.33 1.98 0.66 3 1 C3 3.31 3 5.62 3 8 C2.01 8 1.02 8 0 8 C0 5.36 0 2.72 0 0 Z " fill="#F79752" transform="translate(47,21)"/>
</svg>
