<?xml version="1.0" encoding="UTF-8"?>
<svg version="1.1" xmlns="http://www.w3.org/2000/svg" width="130" height="89">
<path d="M0 0 C0 3 0 3 -1.64453125 4.68359375 C-2.35996094 5.26238281 -3.07539062 5.84117188 -3.8125 6.4375 C-6.66088407 8.7566761 -8.896319 10.98052096 -11 14 C-10.505 14.7425 -10.01 15.485 -9.5 16.25 C-6.67641509 22.00576925 -7.06006831 28.75791677 -8.80859375 34.7890625 C-11.59560764 41.1731566 -15.66514377 45.08169545 -22 48 C-22.99 48 -23.98 48 -25 48 C-24.98952637 48.74685059 -24.97905273 49.49370117 -24.96826172 50.26318359 C-24.9267923 53.63375508 -24.90070271 57.004273 -24.875 60.375 C-24.85824219 61.550625 -24.84148437 62.72625 -24.82421875 63.9375 C-24.81777344 65.05898437 -24.81132813 66.18046875 -24.8046875 67.3359375 C-24.79421387 68.37282715 -24.78374023 69.4097168 -24.77294922 70.47802734 C-25 73 -25 73 -27 75 C-28.81786346 75.25168228 -28.81786346 75.25168228 -31.06140137 75.25396729 C-31.91108994 75.25960693 -32.7607785 75.26524658 -33.63621521 75.27105713 C-34.57030716 75.26700867 -35.50439911 75.26296021 -36.46679688 75.25878906 C-37.94008202 75.26404602 -37.94008202 75.26404602 -39.44313049 75.26940918 C-42.70174145 75.27823825 -45.9601367 75.27237316 -49.21875 75.265625 C-51.47554567 75.26697131 -53.73234106 75.26891156 -55.98913574 75.27142334 C-60.72374222 75.2743762 -65.45827335 75.27007173 -70.19287109 75.26074219 C-76.27299751 75.24934761 -82.35294738 75.25590621 -88.43306732 75.26788712 C-93.09463846 75.27510133 -97.75616749 75.2728198 -102.41773987 75.26763153 C-104.66012086 75.26629382 -106.90250562 75.26794697 -109.1448822 75.27259064 C-112.2744261 75.27764864 -115.40368086 75.26995579 -118.53320312 75.25878906 C-119.93434105 75.26486176 -119.93434105 75.26486176 -121.36378479 75.27105713 C-122.21347336 75.26541748 -123.06316193 75.25977783 -123.93859863 75.25396729 C-124.67896614 75.25321323 -125.41933365 75.25245918 -126.18213654 75.25168228 C-128 75 -128 75 -130 73 C-130.25396729 70.26733398 -130.25396729 70.26733398 -130.25878906 66.74609375 C-130.26509338 65.43133057 -130.27139771 64.11656738 -130.27789307 62.76196289 C-130.2743134 61.3204739 -130.27021146 59.87898613 -130.265625 58.4375 C-130.26697168 56.96541276 -130.26891223 55.49332595 -130.27142334 54.02124023 C-130.27437449 50.93436452 -130.27007732 47.84760447 -130.26074219 44.76074219 C-130.24934756 40.79927871 -130.25590709 36.83808622 -130.26788712 32.87663269 C-130.275106 29.83636423 -130.27281768 26.79616027 -130.26763153 23.75588989 C-130.26629511 22.2950131 -130.2679425 20.8341305 -130.27259064 19.3732605 C-130.27765606 17.33347685 -130.26856979 15.29367274 -130.25878906 13.25390625 C-130.25640228 11.51089233 -130.25640228 11.51089233 -130.25396729 9.73266602 C-130 7 -130 7 -128 5 C-126.15483761 4.72711372 -126.15483761 4.72711372 -123.87181091 4.6946106 C-123.006996 4.67766647 -122.14218109 4.66072235 -121.25115967 4.64326477 C-120.30001282 4.6348204 -119.34886597 4.62637604 -118.36889648 4.61767578 C-117.36868973 4.60120499 -116.36848297 4.58473419 -115.33796692 4.56776428 C-112.0157306 4.51629481 -108.69354572 4.47993955 -105.37109375 4.4453125 C-103.06380367 4.4164469 -100.7565171 4.38729884 -98.44923401 4.35787964 C-93.60284374 4.29883303 -88.75644344 4.24808736 -83.90991211 4.20214844 C-77.71131222 4.14205051 -71.51345381 4.0541804 -65.31530666 3.95900154 C-60.54463499 3.89011386 -55.77389741 3.83988166 -51.00294685 3.79479599 C-48.71882157 3.77027036 -46.43475716 3.73912442 -44.15081596 3.70114517 C-40.94601889 3.64991717 -37.74199474 3.62481439 -34.53686523 3.60595703 C-33.599888 3.58536728 -32.66291077 3.56477753 -31.69754028 3.54356384 C-25.97109345 3.54340085 -21.94880899 4.51866888 -16.89090061 7.24680901 C-14.82378683 8.31438781 -14.82378683 8.31438781 -12.00390625 6.89453125 C-11.19824219 6.20746094 -10.39257812 5.52039063 -9.5625 4.8125 C-8.73878906 4.13832031 -7.91507812 3.46414062 -7.06640625 2.76953125 C-6.38449219 2.18558594 -5.70257813 1.60164062 -5 1 C-3 0 -3 0 0 0 Z M-42.875 13.375 C-43.57625 14.24125 -44.2775 15.1075 -45 16 C-45.598125 16.721875 -46.19625 17.44375 -46.8125 18.1875 C-49.04545927 23.47608775 -48.70133103 28.85475214 -46.9375 34.25 C-43.82443568 38.66854291 -40.17827004 42.27390999 -35 44 C-29.31014289 44.5635668 -24.83091597 44.32796433 -20 41 C-15.311526 36.34454342 -12.87208935 32.82828497 -12.75 26.0625 C-12.71132812 24.78052734 -12.71132812 24.78052734 -12.671875 23.47265625 C-13.06123438 20.53855522 -14.06649829 19.19299799 -16 17 C-16.34780518 17.46897705 -16.69561035 17.9379541 -17.05395508 18.42114258 C-18.63759169 20.55349886 -20.22500118 22.68301773 -21.8125 24.8125 C-22.35970703 25.55048828 -22.90691406 26.28847656 -23.47070312 27.04882812 C-24.26831055 28.11713867 -24.26831055 28.11713867 -25.08203125 29.20703125 C-25.56905518 29.8616333 -26.0560791 30.51623535 -26.55786133 31.19067383 C-28 33 -28 33 -31 36 C-34.96 32.7 -38.92 29.4 -43 26 C-41 22 -41 22 -39 20 C-38.0925 20.680625 -37.185 21.36125 -36.25 22.0625 C-33.36169706 24.18111795 -33.36169706 24.18111795 -31.125 23.9375 C-28.0000829 22.5588601 -26.10634152 20.386855 -23.75 17.9375 C-22.85796875 17.01839844 -21.9659375 16.09929688 -21.046875 15.15234375 C-20.37140625 14.44207031 -19.6959375 13.73179688 -19 13 C-27.0096383 6.59936189 -35.06525364 6.9234704 -42.875 13.375 Z M-123 12 C-123.09868509 13.65191396 -123.12798837 15.30803217 -123.12939453 16.96289062 C-123.13254669 18.02068726 -123.13569885 19.07848389 -123.13894653 20.16833496 C-123.1369223 21.31934692 -123.13489807 22.47035889 -123.1328125 23.65625 C-123.13376923 24.82885376 -123.13472595 26.00145752 -123.13571167 27.20959473 C-123.1363937 29.69458062 -123.13453784 32.17956829 -123.13037109 34.66455078 C-123.12502319 38.48343887 -123.13031536 42.30220935 -123.13671875 46.12109375 C-123.13605797 48.52864609 -123.13477682 50.93619837 -123.1328125 53.34375 C-123.13483673 54.49476196 -123.13686096 55.64577393 -123.13894653 56.83166504 C-123.13579437 57.88946167 -123.13264221 58.9472583 -123.12939453 60.03710938 C-123.12859894 60.97341187 -123.12780334 61.90971436 -123.12698364 62.87438965 C-123.23689643 64.9843306 -123.23689643 64.9843306 -122 66 C-119.23598592 66.10050214 -116.49692774 66.13616075 -113.73242188 66.12939453 C-112.4325106 66.13202301 -112.4325106 66.13202301 -111.1063385 66.13470459 C-108.22712227 66.13912425 -105.34796691 66.13618472 -102.46875 66.1328125 C-100.47717273 66.13348551 -98.48559554 66.1344555 -96.49401855 66.13571167 C-92.31420105 66.1371888 -88.13440487 66.13503361 -83.95458984 66.13037109 C-78.58397474 66.1246738 -73.2134096 66.12795273 -67.84279633 66.13394356 C-63.7285728 66.13754877 -59.61436121 66.13641077 -55.50013733 66.13381577 C-53.51929214 66.13314639 -51.53844588 66.1339753 -49.55760193 66.13629532 C-46.79423124 66.13882119 -44.03094266 66.13498218 -41.26757812 66.12939453 C-40.44052872 66.13141876 -39.61347931 66.13344299 -38.7613678 66.13552856 C-35.07943275 66.47318749 -35.07943275 66.47318749 -32 65 C-31.92680379 62.30345146 -31.90757463 59.63308542 -31.9375 56.9375 C-31.94201172 56.17888672 -31.94652344 55.42027344 -31.95117188 54.63867188 C-31.9629932 52.75908129 -31.98092922 50.87953101 -32 49 C-32.73605469 48.76925781 -33.47210938 48.53851563 -34.23046875 48.30078125 C-41.6909775 45.80737476 -46.19324706 43.29818679 -50.3125 36.4375 C-52.74091942 31.18418452 -52.93244182 25.65635661 -52 20 C-50.68 17.03 -49.36 14.06 -48 11 C-56.58 11 -65.16 11 -74 11 C-73.505 20.405 -73.505 20.405 -73 30 C-73.99 30.495 -73.99 30.495 -75 31 C-73.22555028 33.24606427 -72.41647515 33.95081002 -69.51953125 34.29296875 C-68.17955078 34.24076172 -68.17955078 34.24076172 -66.8125 34.1875 C-65.91144531 34.16042969 -65.01039062 34.13335937 -64.08203125 34.10546875 C-63.39496094 34.07066406 -62.70789063 34.03585938 -62 34 C-61.74476562 34.54527344 -61.48953125 35.09054688 -61.2265625 35.65234375 C-56.92353697 44.04259969 -56.92353697 44.04259969 -50.01171875 49.9609375 C-49.36847656 50.11820313 -48.72523437 50.27546875 -48.0625 50.4375 C-44 52 -44 52 -35 64 C-62.72 63.67 -90.44 63.34 -119 63 C-115.7 58.38 -112.4 53.76 -109 49 C-108.05125 47.411875 -107.1025 45.82375 -106.125 44.1875 C-104.17221763 41.52513101 -103.25315601 41.05839552 -99.96875 40.30078125 C-96.95214214 40.02942751 -94.02614267 39.92165326 -91 40 C-89.98888907 36.95086772 -89.98888907 36.95086772 -91 34 C-91.99 34 -92.98 34 -94 34 C-93.67 31.69 -93.34 29.38 -93 27 C-93.66 27 -94.32 27 -95 27 C-94.41196203 23.97580475 -93.77321882 20.98241547 -93 18 C-93.66 18 -94.32 18 -95 18 C-94.979375 17.030625 -94.95875 16.06125 -94.9375 15.0625 C-94.64381501 12.12534105 -94.64381501 12.12534105 -96 11 C-97.91458282 10.90028214 -99.83282317 10.86919411 -101.75 10.8671875 C-103.49796875 10.86525391 -103.49796875 10.86525391 -105.28125 10.86328125 C-107.12203125 10.86908203 -107.12203125 10.86908203 -109 10.875 C-110.2271875 10.87113281 -111.454375 10.86726562 -112.71875 10.86328125 C-113.8840625 10.86457031 -115.049375 10.86585937 -116.25 10.8671875 C-117.32765625 10.86831543 -118.4053125 10.86944336 -119.515625 10.87060547 C-121.94219997 10.71907629 -121.94219997 10.71907629 -123 12 Z M-92 11 C-92 11.66 -92 12.32 -92 13 C-91.34 13 -90.68 13 -90 13 C-90 14.32 -90 15.64 -90 17 C-89.34 17 -88.68 17 -88 17 C-87.814375 16.0409375 -87.814375 16.0409375 -87.625 15.0625 C-87.41875 14.381875 -87.2125 13.70125 -87 13 C-86.34 12.67 -85.68 12.34 -85 12 C-85 13.65 -85 15.3 -85 17 C-84.67 15.68 -84.34 14.36 -84 13 C-83.01 13 -82.02 13 -81 13 C-81 12.34 -81 11.68 -81 11 C-84.63 11 -88.26 11 -92 11 Z M-78 11 C-77 15 -77 15 -77 15 Z M-80 23 C-79 25 -79 25 -79 25 Z M-78 26 C-77.67 26.66 -77.34 27.32 -77 28 C-76.67 27.34 -76.34 26.68 -76 26 C-76.66 26 -77.32 26 -78 26 Z M-89 27 C-88 30 -88 30 -88 30 Z " fill="#B3B2B2" transform="translate(130,0)"/>
<path d="M0 0 C1.32 0 2.64 0 4 0 C4 0.66 4 1.32 4 2 C4.66 2 5.32 2 6 2 C6 3.32 6 4.64 6 6 C6.66 6 7.32 6 8 6 C8.33 4.35 8.66 2.7 9 1 C10.98 1.33 12.96 1.66 15 2 C15 1.34 15 0.68 15 0 C17.31 0 19.62 0 22 0 C23.27831175 7.03071463 24.28289063 15.15132811 22 22 C22.73863281 21.89816406 23.47726563 21.79632813 24.23828125 21.69140625 C27.95803376 21.53543188 30.47185487 21.7341146 34 23 C36.88822164 25.79819437 39.0111919 29.11010699 41.08129883 32.53930664 C44.19194678 37.56139706 46.12562991 38.53140748 52 40 C54.65234375 42.53125 54.65234375 42.53125 56.9375 45.5 C57.70964844 46.4796875 58.48179688 47.459375 59.27734375 48.46875 C61 51 61 51 61 53 C32.95 53 4.9 53 -24 53 C-11.00135161 30.25236532 -11.00135161 30.25236532 -3.48046875 27.8984375 C-0.47214102 27.93412348 2.10469081 28.20183368 5 29 C5 27.02 5 25.04 5 23 C4.01 23 3.02 23 2 23 C2.04125 22.13375 2.0825 21.2675 2.125 20.375 C1.99542279 16.87641532 1.23980344 14.25448403 0 11 C0.66 10.67 1.32 10.34 2 10 C2.33 9.01 2.66 8.02 3 7 C2.34 7 1.68 7 1 7 C0.67 4.69 0.34 2.38 0 0 Z M16 12 C17 14 17 14 17 14 Z M18 15 C18.33 15.66 18.66 16.32 19 17 C19.33 16.34 19.66 15.68 20 15 C19.34 15 18.68 15 18 15 Z M7 16 C8 19 8 19 8 19 Z " fill="#F79752" transform="translate(34,11)"/>
<path d="M0 0 C0 3 0 3 -1.64453125 4.68359375 C-2.35996094 5.26238281 -3.07539062 5.84117188 -3.8125 6.4375 C-6.66088407 8.7566761 -8.896319 10.98052096 -11 14 C-10.505 14.7425 -10.01 15.485 -9.5 16.25 C-6.67641509 22.00576925 -7.06006831 28.75791677 -8.80859375 34.7890625 C-11.60528099 41.19531494 -15.44692773 45.42019856 -22 48 C-29.85698888 49.78067271 -36.80667071 49.8775951 -43.87109375 45.734375 C-48.33816102 42.09514956 -51.19140902 37.42577294 -53 32 C-53.57341215 25.65486554 -53.80682749 19.46617225 -50.546875 13.8203125 C-46.69349934 9.28578458 -40.33870277 4.29219637 -34.27734375 3.76171875 C-24.18662892 3.53748064 -24.18662892 3.53748064 -19.3125 6.4375 C-17.26521174 7.67092208 -17.26521174 7.67092208 -15 8 C-11.17664188 6.22092295 -8.18633093 3.72855938 -5 1 C-3 0 -3 0 0 0 Z M-42.875 13.375 C-43.57625 14.24125 -44.2775 15.1075 -45 16 C-45.598125 16.721875 -46.19625 17.44375 -46.8125 18.1875 C-49.04545927 23.47608775 -48.70133103 28.85475214 -46.9375 34.25 C-43.82443568 38.66854291 -40.17827004 42.27390999 -35 44 C-29.31014289 44.5635668 -24.83091597 44.32796433 -20 41 C-15.311526 36.34454342 -12.87208935 32.82828497 -12.75 26.0625 C-12.71132812 24.78052734 -12.71132812 24.78052734 -12.671875 23.47265625 C-13.06123438 20.53855522 -14.06649829 19.19299799 -16 17 C-16.34780518 17.46897705 -16.69561035 17.9379541 -17.05395508 18.42114258 C-18.63759169 20.55349886 -20.22500118 22.68301773 -21.8125 24.8125 C-22.35970703 25.55048828 -22.90691406 26.28847656 -23.47070312 27.04882812 C-24.26831055 28.11713867 -24.26831055 28.11713867 -25.08203125 29.20703125 C-25.56905518 29.8616333 -26.0560791 30.51623535 -26.55786133 31.19067383 C-28 33 -28 33 -31 36 C-34.96 32.7 -38.92 29.4 -43 26 C-41 22 -41 22 -39 20 C-38.0925 20.680625 -37.185 21.36125 -36.25 22.0625 C-33.36169706 24.18111795 -33.36169706 24.18111795 -31.125 23.9375 C-28.0000829 22.5588601 -26.10634152 20.386855 -23.75 17.9375 C-22.85796875 17.01839844 -21.9659375 16.09929688 -21.046875 15.15234375 C-20.37140625 14.44207031 -19.6959375 13.73179688 -19 13 C-27.0096383 6.59936189 -35.06525364 6.9234704 -42.875 13.375 Z " fill="#F69752" transform="translate(130,0)"/>
<path d="M0 0 C7.26 0 14.52 0 22 0 C22 3.3 22 6.6 22 10 C24.64 10 27.28 10 30 10 C30 10.99 30 11.98 30 13 C17.46 13 4.92 13 -8 13 C-8 12.01 -8 11.02 -8 10 C-5.36 10 -2.72 10 0 10 C0 6.7 0 3.4 0 0 Z " fill="#B3B3B3" transform="translate(42,76)"/>
</svg>
