<?xml version="1.0" encoding="UTF-8"?>
<svg version="1.1" xmlns="http://www.w3.org/2000/svg" width="102" height="82">
<path d="M0 0 C0.91898575 0.00045319 1.8379715 0.00090637 2.7848053 0.00137329 C4.22861069 -0.00366463 4.22861069 -0.00366463 5.70158386 -0.00880432 C8.90064261 -0.01834554 12.0996492 -0.020259 15.29872131 -0.02133179 C17.51210553 -0.02454211 19.72548953 -0.02790601 21.93887329 -0.03141785 C26.58527621 -0.03741703 31.2316605 -0.03925693 35.87806702 -0.03866577 C41.84498888 -0.03856409 47.8117919 -0.05221874 53.77868557 -0.06943798 C58.35189365 -0.08053202 62.92507276 -0.08258578 67.49829292 -0.08205605 C69.69881157 -0.08324 71.89933087 -0.08768483 74.09983635 -0.09538841 C77.17199509 -0.10513625 80.24389276 -0.10233097 83.3160553 -0.09628296 C84.23301682 -0.10190247 85.14997833 -0.10752197 86.09472656 -0.11331177 C92.38681243 -0.08167817 92.38681243 -0.08167817 94.61512756 2.14663696 C94.8556366 4.85479736 94.8556366 4.85479736 94.84217834 8.34048462 C94.84202728 9.64168243 94.84187622 10.94288025 94.84172058 12.2835083 C94.83150649 13.70924023 94.82107449 15.13497061 94.81044006 16.56069946 C94.80671051 18.01515509 94.80386327 19.46961323 94.80186462 20.92407227 C94.79422356 24.75461752 94.77457114 28.58501142 94.75245667 32.41549683 C94.73200834 36.32325188 94.72286509 40.23103135 94.71278381 44.13882446 C94.69132559 51.80816434 94.65718407 59.47737946 94.61512756 67.14663696 C91.79770668 68.73485998 89.77672938 69.39709068 86.54772949 69.40060425 C85.74722168 69.4062439 84.94671387 69.41188354 84.12194824 69.41769409 C83.25272232 69.41364563 82.3834964 69.40959717 81.4879303 69.40542603 C80.56557587 69.40893066 79.64322144 69.4124353 78.69291687 69.41604614 C75.64477509 69.42484725 72.59686545 69.41902045 69.54872131 69.41226196 C67.43170121 69.41360896 65.3146814 69.41554979 63.19766235 69.4180603 C58.76167352 69.42100927 54.32576524 69.41672073 49.88978577 69.40737915 C44.1976783 69.39597783 38.50575929 69.40254988 32.81365871 69.41452408 C28.44285658 69.42174283 24.07209932 69.41945479 19.70129585 69.41426849 C17.6020868 69.4129324 15.50287369 69.4145783 13.40366936 69.4192276 C10.47331282 69.42429379 7.54326387 69.41658151 4.6129303 69.40542603 C3.74168015 69.40947449 2.87042999 69.41352295 1.97277832 69.41769409 C-4.04207419 69.37516913 -4.04207419 69.37516913 -7.38487244 67.14663696 C-7.75236511 64.40724182 -7.75236511 64.40724182 -7.74131775 60.87686157 C-7.74431885 59.5588707 -7.74731995 58.24087982 -7.75041199 56.88294983 C-7.73840715 55.4382895 -7.72592421 53.99363308 -7.71299744 52.54898071 C-7.70994083 51.07450045 -7.70806396 49.6000173 -7.70732117 48.12553406 C-7.70271524 45.03439294 -7.68827745 41.94351194 -7.66612244 38.85244751 C-7.637815 34.88197325 -7.62690889 30.91170384 -7.62244034 26.94113827 C-7.61829203 23.89662103 -7.60847993 20.85214558 -7.59656525 17.80764961 C-7.5908519 16.34315897 -7.58609674 14.87866427 -7.58229828 13.4141674 C-7.57545534 11.37175984 -7.56092883 9.32938232 -7.54600525 7.28701782 C-7.53917725 6.12278793 -7.53234924 4.95855804 -7.52531433 3.75904846 C-7.25496203 -1.26987439 -4.36257122 0.02237717 0 0 Z M-1.38487244 7.14663696 C-1.48341666 8.73727006 -1.51285937 10.33225174 -1.51426697 11.92593384 C-1.51741913 12.94368896 -1.52057129 13.96144409 -1.52381897 15.01004028 C-1.52179474 16.11730469 -1.51977051 17.22456909 -1.51768494 18.36538696 C-1.51864166 19.49359863 -1.51959839 20.6218103 -1.52058411 21.78421021 C-1.52126611 24.17503922 -1.51941041 26.56587007 -1.51524353 28.95669556 C-1.50989559 32.63072847 -1.51518786 36.30463913 -1.52159119 39.97866821 C-1.52093041 42.29507473 -1.51964925 44.61148118 -1.51768494 46.92788696 C-1.51970917 48.03515137 -1.5217334 49.14241577 -1.52381897 50.28323364 C-1.52066681 51.30098877 -1.51751465 52.3187439 -1.51426697 53.36734009 C-1.51347137 54.26811279 -1.51267578 55.1688855 -1.51185608 56.09695435 C-1.61231849 58.13986765 -1.61231849 58.13986765 -0.38487244 59.14663696 C1.6147112 59.18744479 3.6155801 59.18918053 5.61512756 59.14663696 C5.94512756 56.17663696 6.27512756 53.20663696 6.61512756 50.14663696 C6.94512756 51.79663696 7.27512756 53.44663696 7.61512756 55.14663696 C8.60512756 54.65163696 8.60512756 54.65163696 9.61512756 54.14663696 C9.61512756 50.18663696 9.61512756 46.22663696 9.61512756 42.14663696 C10.27512756 42.14663696 10.93512756 42.14663696 11.61512756 42.14663696 C11.61512756 47.75663696 11.61512756 53.36663696 11.61512756 59.14663696 C11.94512756 59.14663696 12.27512756 59.14663696 12.61512756 59.14663696 C13.49019518 53.6682725 13.90511985 48.2474106 14.17762756 42.70913696 C14.32200256 39.88351196 14.46637756 37.05788696 14.61512756 34.14663696 C15.27512756 42.39663696 15.93512756 50.64663696 16.61512756 59.14663696 C16.94512756 59.14663696 17.27512756 59.14663696 17.61512756 59.14663696 C18.27512756 56.83663696 18.93512756 54.52663696 19.61512756 52.14663696 C20.27512756 53.46663696 20.93512756 54.78663696 21.61512756 56.14663696 C21.94512756 51.85663696 22.27512756 47.56663696 22.61512756 43.14663696 C23.27512756 44.79663696 23.93512756 46.44663696 24.61512756 48.14663696 C25.27512756 48.14663696 25.93512756 48.14663696 26.61512756 48.14663696 C26.94512756 51.77663696 27.27512756 55.40663696 27.61512756 59.14663696 C27.94512756 59.14663696 28.27512756 59.14663696 28.61512756 59.14663696 C28.94512756 56.83663696 29.27512756 54.52663696 29.61512756 52.14663696 C30.60512756 52.14663696 31.59512756 52.14663696 32.61512756 52.14663696 C33.27512756 39.93663696 33.93512756 27.72663696 34.61512756 15.14663696 C35.49012756 30.20913696 35.49012756 30.20913696 35.75135803 34.9203186 C35.86568176 36.78224854 35.86568176 36.78224854 35.98231506 38.68179321 C36.05563049 39.94386597 36.12894592 41.20593872 36.20448303 42.5062561 C36.63213584 46.29741608 37.46718729 49.52102488 38.61512756 53.14663696 C39.27512756 53.14663696 39.93512756 53.14663696 40.61512756 53.14663696 C40.94512756 54.13663696 41.27512756 55.12663696 41.61512756 56.14663696 C41.61512756 50.86663696 41.61512756 45.58663696 41.61512756 40.14663696 C42.60512756 40.14663696 43.59512756 40.14663696 44.61512756 40.14663696 C44.61512756 44.76663696 44.61512756 49.38663696 44.61512756 54.14663696 C45.11012756 53.15663696 45.11012756 53.15663696 45.61512756 52.14663696 C46.93512756 52.14663696 48.25512756 52.14663696 49.61512756 52.14663696 C49.94512756 53.13663696 50.27512756 54.12663696 50.61512756 55.14663696 C51.27512756 55.14663696 51.93512756 55.14663696 52.61512756 55.14663696 C52.94512756 51.18663696 53.27512756 47.22663696 53.61512756 43.14663696 C54.11012756 47.60163696 54.11012756 47.60163696 54.61512756 52.14663696 C55.27512756 51.81663696 55.93512756 51.48663696 56.61512756 51.14663696 C57.08073534 48.10870879 57.42096639 45.13763039 57.68544006 42.08023071 C57.76205872 41.27525146 57.83867737 40.47027222 57.9176178 39.64089966 C58.20207235 36.62293045 58.47009734 33.60343096 58.74012756 30.58413696 C59.35887756 23.83976196 59.97762756 17.09538696 60.61512756 10.14663696 C61.93512756 23.67663696 63.25512756 37.20663696 64.61512756 51.14663696 C65.27512756 51.14663696 65.93512756 51.14663696 66.61512756 51.14663696 C67.27512756 39.59663696 67.93512756 28.04663696 68.61512756 16.14663696 C69.60512756 37.43163696 69.60512756 37.43163696 70.61512756 59.14663696 C72.49809818 55.38069573 72.94583453 53.5628577 73.24794006 49.50601196 C73.32415588 48.54147095 73.4003717 47.57692993 73.47889709 46.5831604 C73.56510315 45.36660767 73.6513092 44.15005493 73.74012756 42.89663696 C74.02887756 39.01913696 74.31762756 35.14163696 74.61512756 31.14663696 C75.60512756 44.01663696 75.60512756 44.01663696 76.61512756 57.14663696 C76.94512756 57.14663696 77.27512756 57.14663696 77.61512756 57.14663696 C78.27512756 52.52663696 78.93512756 47.90663696 79.61512756 43.14663696 C80.60512756 51.06663696 80.60512756 51.06663696 81.61512756 59.14663696 C83.59512756 59.14663696 85.57512756 59.14663696 87.61512756 59.14663696 C89.24036497 57.52139956 88.74249372 55.71855532 88.74452209 53.4750061 C88.74925034 51.98324608 88.74925034 51.98324608 88.7540741 50.46134949 C88.75204987 49.37909592 88.75002563 48.29684235 88.74794006 47.18179321 C88.74937515 45.52632729 88.74937515 45.52632729 88.75083923 43.8374176 C88.75152129 41.49786319 88.74966527 39.1583069 88.74549866 36.8187561 C88.74015584 33.22813682 88.74544022 29.63764292 88.75184631 26.04702759 C88.75118544 23.77944919 88.74990408 21.51187086 88.74794006 19.24429321 C88.75097641 17.6239492 88.75097641 17.6239492 88.7540741 15.97087097 C88.75092194 14.97321213 88.74776978 13.97555328 88.74452209 12.94766235 C88.7437265 12.06687515 88.74293091 11.18608795 88.74211121 10.27861023 C88.75215908 8.09299731 88.75215908 8.09299731 87.61512756 6.14663696 C76.1586274 6.12351455 64.70213275 6.1057224 53.24561405 6.09482479 C47.92647543 6.08959574 42.60735273 6.08249769 37.28822327 6.07119751 C32.15948771 6.06036941 27.03076751 6.0543603 21.90202141 6.05175972 C19.94071142 6.04990533 17.97940232 6.04628445 16.01809883 6.04090691 C13.28097309 6.0336975 10.54391159 6.03264598 7.80677795 6.03311157 C6.98750824 6.0295163 6.16823853 6.02592102 5.32414246 6.0222168 C1.67009319 5.68108196 1.67009319 5.68108196 -1.38487244 7.14663696 Z " fill="#B3B3B3" transform="translate(7.3848724365234375,-0.146636962890625)"/>
<path d="M0 0 C0.33 0 0.66 0 1 0 C1.05534912 1.08941895 1.11069824 2.17883789 1.16772461 3.30126953 C1.37487278 7.36053496 1.5865483 11.41955404 1.79956055 15.47851562 C1.89095697 17.23203282 1.9811415 18.98561364 2.07006836 20.73925781 C2.19843621 23.26645507 2.33122563 25.79338805 2.46484375 28.3203125 C2.50343002 29.09867462 2.5420163 29.87703674 2.58177185 30.6789856 C2.80623683 34.83689045 3.04544566 38.93359062 4 43 C4.66 43.33 5.32 43.66 6 44 C6.33 39.71 6.66 35.42 7 31 C7.99 31 8.98 31 10 31 C10.33 34.96 10.66 38.92 11 43 C12.32 43 13.64 43 15 43 C17.40990104 36.11175931 17.40990104 36.11175931 19 29 C19.33 29 19.66 29 20 29 C20.33 33.29 20.66 37.58 21 42 C22.98 21.21 22.98 21.21 25 0 C25.66 0.33 26.32 0.66 27 1 C27.50244141 3.80053711 27.50244141 3.80053711 27.8515625 7.52734375 C27.94719986 8.52176231 27.94719986 8.52176231 28.04476929 9.53627014 C28.17851381 10.94734829 28.30765759 12.35886873 28.43261719 13.77075195 C28.62153204 15.89844144 28.82506092 18.02431359 29.03125 20.15039062 C29.71941967 27.45020354 30.15782814 34.66099167 30 42 C30.66 42 31.32 42 32 42 C31.98839844 40.69289062 31.97679687 39.38578125 31.96484375 38.0390625 C31.89426723 26.31784679 32.20042433 14.69379414 33 3 C34.65214079 5.91878206 35.27715102 8.12244828 35.4140625 11.46484375 C35.47207031 12.79225586 35.47207031 12.79225586 35.53125 14.14648438 C35.5621875 15.06751953 35.593125 15.98855469 35.625 16.9375 C35.68300781 18.22043945 35.68300781 18.22043945 35.7421875 19.52929688 C36.14669327 29.69250434 36 39.81451445 36 50 C22.14 50 8.28 50 -6 50 C-5.67 47.69 -5.34 45.38 -5 43 C-4.01 43 -3.02 43 -2 43 C-2.01160156 42.00484375 -2.02320313 41.0096875 -2.03515625 39.984375 C-2.10004832 31.74707558 -1.96476425 23.5409794 -1.5625 15.3125 C-1.52326416 14.4762207 -1.48402832 13.63994141 -1.44360352 12.77832031 C-1.21567758 8.45078993 -0.81999652 4.26536004 0 0 Z " fill="#F79752" transform="translate(42,9)"/>
<path d="M0 0 C7.26 0 14.52 0 22 0 C22 2.97 22 5.94 22 9 C24.64 9 27.28 9 30 9 C30 9.99 30 10.98 30 12 C17.46 12 4.92 12 -8 12 C-8 11.01 -8 10.02 -8 9 C-5.36 9 -2.72 9 0 9 C0 6.03 0 3.06 0 0 Z " fill="#B3B3B3" transform="translate(40,70)"/>
<path d="M0 0 C0.66 0.33 1.32 0.66 2 1 C2.41064453 2.94946289 2.41064453 2.94946289 2.6328125 5.47265625 C2.71660156 6.37177734 2.80039063 7.27089844 2.88671875 8.19726562 C2.96535156 9.14279297 3.04398437 10.08832031 3.125 11.0625 C3.21136719 12.01189453 3.29773438 12.96128906 3.38671875 13.93945312 C3.59953231 16.29222524 3.8008345 18.64603328 4 21 C4.33 17.37 4.66 13.74 5 10 C7.48044315 13.72066472 7.44381173 16.86540474 7.625 21.1875 C7.66367188 21.93708984 7.70234375 22.68667969 7.7421875 23.45898438 C7.83628216 25.30559199 7.91922319 27.1527619 8 29 C4.7 29 1.4 29 -2 29 C-1.34 19.43 -0.68 9.86 0 0 Z " fill="#F79752" transform="translate(81,30)"/>
<path d="M0 0 C0.33 0 0.66 0 1 0 C1.33 2.97 1.66 5.94 2 9 C2.66 9 3.32 9 4 9 C5.17571451 12.67410785 5.07366746 16.16929183 5 20 C1.7 20 -1.6 20 -5 20 C-4.67 15.71 -4.34 11.42 -4 7 C-3.67 7 -3.34 7 -3 7 C-2.67 8.98 -2.34 10.96 -2 13 C-1.34 8.71 -0.68 4.42 0 0 Z " fill="#F79752" transform="translate(30,39)"/>
<path d="M0 0 C0.33 0 0.66 0 1 0 C1.67192387 10.0188648 2.15723924 19.95415947 2 30 C0.68 30 -0.64 30 -2 30 C-1.86076952 25.93724554 -1.71246082 21.87487143 -1.5625 17.8125 C-1.52318359 16.66201172 -1.48386719 15.51152344 -1.44335938 14.32617188 C-1.38051758 12.65844727 -1.38051758 12.65844727 -1.31640625 10.95703125 C-1.27974854 9.93585205 -1.24309082 8.91467285 -1.20532227 7.86254883 C-1.01159937 5.16171537 -0.59548047 2.63833872 0 0 Z " fill="#F79752" transform="translate(22,29)"/>
<path d="M0 0 C0.66 0 1.32 0 2 0 C2 5.61 2 11.22 2 17 C0.02 17 -1.96 17 -4 17 C-4.05399736 15.54207116 -4.09279177 14.08357288 -4.125 12.625 C-4.15980469 11.40683594 -4.15980469 11.40683594 -4.1953125 10.1640625 C-4 8 -4 8 -2 6 C-1.67 7.98 -1.34 9.96 -1 12 C-0.67 8.04 -0.34 4.08 0 0 Z " fill="#F79752" transform="translate(17,42)"/>
</svg>
