<?xml version="1.0" encoding="UTF-8"?>
<svg version="1.1" xmlns="http://www.w3.org/2000/svg" width="99" height="59">
<path d="M0 0 C21.78 0 43.56 0 66 0 C66 3.3 66 6.6 66 10 C66.495 11.98 66.495 11.98 67 14 C59.29558727 14.15241435 51.59156476 14.25732746 43.88598633 14.32958984 C41.26604687 14.35972085 38.64620793 14.40063399 36.02661133 14.45263672 C32.25576957 14.52560691 28.48626391 14.55949539 24.71484375 14.5859375 C23.54791489 14.61690521 22.38098602 14.64787292 21.17869568 14.67977905 C15.79418156 14.68199617 12.07459261 14.68145253 7.88891602 11.06103516 C7.3880397 10.52757477 6.88716339 9.99411438 6.37110901 9.44448853 C4.91128902 7.75368265 4.91128902 7.75368265 2.0625 6.4375 C1.381875 5.963125 0.70125 5.48875 0 5 C0 3.35 0 1.7 0 0 Z " fill="#F79752" transform="translate(14,9)"/>
<path d="M0 0 C0.73195587 -0.00014603 1.46391174 -0.00029205 2.2180481 -0.0004425 C4.63668789 0.00025399 7.05525061 0.00803411 9.47387695 0.01586914 C11.15110736 0.01773425 12.82833831 0.01915772 14.50556946 0.02015686 C18.91966252 0.02397469 23.33372267 0.03379873 27.74780273 0.04486084 C32.25219274 0.05509072 36.75658806 0.05965786 41.26098633 0.06469727 C50.09889141 0.07542164 58.93677207 0.09248928 67.7746582 0.11352539 C66.85952762 3.19169189 66.1128702 4.83295717 63.61543274 6.90473938 C60.11876389 8.39261684 57.05380366 8.51300105 53.32226562 8.45410156 C52.5900177 8.45453964 51.85776978 8.45497772 51.10333252 8.45542908 C48.69532126 8.45334756 46.28801582 8.43004749 43.88012695 8.40649414 C42.20575847 8.4008959 40.53138505 8.39662688 38.85700989 8.39363098 C34.4592624 8.38220013 30.06181417 8.35274824 25.66418457 8.31951904 C21.1730555 8.28878012 16.68187787 8.27511749 12.19067383 8.26000977 C3.38519826 8.22787672 -5.42003449 8.17670184 -14.2253418 8.11352539 C-13.51398433 4.85872945 -12.86261932 3.24363416 -10.2253418 1.11352539 C-6.73855396 -0.04873722 -3.62530059 -0.01887558 0 0 Z " fill="#F79752" transform="translate(23.225341796875,-0.113525390625)"/>
<path d="M0 0 C6.6 0 13.2 0 20 0 C20 7.33333333 20 7.33333333 18 10 C15.375 11.25 15.375 11.25 13 12 C12.9071875 13.546875 12.9071875 13.546875 12.8125 15.125 C11.83209529 19.80077631 10.4757011 21.75097506 7 25 C0.50634366 27.62396725 -6.02316712 27.22720162 -12.9375 27.125 C-14.09830078 27.11597656 -15.25910156 27.10695313 -16.45507812 27.09765625 C-19.30360108 27.07421162 -22.15169078 27.04139522 -25 27 C-25 27.99 -25 28.98 -25 30 C-26.98 30 -28.96 30 -31 30 C-31 25.38 -31 20.76 -31 16 C-29.02 16 -27.04 16 -25 16 C-25 17.32 -25 18.64 -25 20 C-20.56174401 19.91932065 -16.12488202 19.80645865 -11.6875 19.6875 C-10.42486328 19.66494141 -9.16222656 19.64238281 -7.86132812 19.61914062 C-6.65283203 19.58369141 -5.44433594 19.54824219 -4.19921875 19.51171875 C-3.08377686 19.48553467 -1.96833496 19.45935059 -0.8190918 19.43237305 C2.28250594 18.95667117 3.16707513 18.47846435 5 16 C6.17574711 13.90010348 6.17574711 13.90010348 7 12 C6.401875 11.773125 5.80375 11.54625 5.1875 11.3125 C2.34482057 9.60689234 1.39084625 7.99031944 0 5 C0 3.35 0 1.7 0 0 Z M9 2 C8.01 3.485 8.01 3.485 7 5 C7.99 5.99 8.98 6.98 10 8 C10.99 7.34 11.98 6.68 13 6 C12.67 4.68 12.34 3.36 12 2 C11.01 2 10.02 2 9 2 Z " fill="#B3B3B3" transform="translate(38,25)"/>
<path d="M0 0 C0.66 0.33 1.32 0.66 2 1 C2.36031186 6.06438342 2.51967498 9.90290837 0.3125 14.5625 C-2 17 -2 17 -4.625 18 C-5.40875 18 -6.1925 18 -7 18 C-7.66 17.34 -8.32 16.68 -9 16 C-9 14.68 -9 13.36 -9 12 C-7.68 11.34 -6.36 10.68 -5 10 C-5.103125 9.0925 -5.20625 8.185 -5.3125 7.25 C-5 4 -5 4 -2.5 1.625 C-1.2625 0.820625 -1.2625 0.820625 0 0 Z " fill="#F79752" transform="translate(90,5)"/>
<path d="M0 0 C1.65 0 3.3 0 5 0 C5 6.93 5 13.86 5 21 C3.35 21 1.7 21 0 21 C0 14.07 0 7.14 0 0 Z " fill="#B3B3B3" transform="translate(0,38)"/>
<path d="M0 0 C2.375 0.3125 2.375 0.3125 5 1 C6.99825961 3.99738941 7.27550398 4.63347508 7.25 8 C7.25515625 8.680625 7.2603125 9.36125 7.265625 10.0625 C7 12 7 12 5 15 C3.68 15 2.36 15 1 15 C1.020625 13.824375 1.04125 12.64875 1.0625 11.4375 C1.06947261 7.52586533 0.64250343 3.85502056 0 0 Z " fill="#F79752" transform="translate(92,0)"/>
</svg>
